<svg width="73" height="74" viewBox="0 0 73 74" fill="none" xmlns="http://www.w3.org/2000/svg">
<path d="M57.4956 58.2299L36.4327 48.2244L15.3697 58.2299L8.14521 74L36.4327 59.4425L64.5823 74L57.4956 58.2299Z" fill="#6E00E6"/>
<path d="M73 64.9708L43.2939 1.51731C43.2939 1.51731 43.2814 1.49866 43.2783 1.48622C43.1029 1.10378 42.9025 0.721345 42.7396 0.32958L42.6363 0.108824H42.5862L42.6238 0.0279832C42.5925 0.0186555 42.558 0.012437 42.5267 0H30.4639C30.37 0.198992 30.2729 0.397983 30.1727 0.593866C30.0725 0.795966 29.9785 1.00429 29.8532 1.19395C29.8532 1.19395 29.8532 1.19395 29.8501 1.19706C29.7812 1.3463 29.6998 1.49244 29.6059 1.62303L0 64.8619L8.14521 73.9969L36.4546 13.2578L64.5823 74L73 64.9739V64.9708Z" fill="white"/>
</svg>
